<svg width="24" height="24" viewBox="0 0 24 24" fill="none" xmlns="http://www.w3.org/2000/svg"><path d="M19.8996 23.5001C19.7426 23.5001 19.5876 23.4501 19.4576 23.3561L11.9996 17.9281L4.54161 23.3581C4.31361 23.5221 4.01161 23.5481 3.75961 23.4181C3.50961 23.2911 3.34961 23.0331 3.34961 22.7511V5.6001C3.34961 4.3601 4.35961 3.3501 5.59961 3.3501H18.3976C19.6376 3.3501 20.6476 4.3601 20.6476 5.6001V22.7501C20.6476 23.0321 20.4896 23.2901 20.2376 23.4181C20.1316 23.4731 20.0146 23.5001 19.8976 23.5001H19.8996ZM11.9996 16.2501C12.1546 16.2501 12.3096 16.2981 12.4396 16.3941L19.1496 21.2771V5.6001C19.1496 5.1881 18.8126 4.8501 18.3996 4.8501H5.59961C5.18661 4.8501 4.84961 5.1881 4.84961 5.6001V21.2771L11.5596 16.3941C11.6896 16.2981 11.8446 16.2501 11.9996 16.2501Z" fill="white"/></svg>