<svg width="24" height="24" viewBox="0 0 24 24" fill="none" xmlns="http://www.w3.org/2000/svg"><path d="M19.708 2H4.292C3.028 2 2 3.028 2 4.292V19.708C2 20.972 3.028 22 4.292 22H19.708C20.972 22 22 20.972 22 19.708V4.292C22 3.028 20.972 2 19.708 2ZM20.5 19.708C20.5 20.145 20.145 20.5 19.708 20.5H4.292C3.855 20.5 3.5 20.145 3.5 19.708V6.418C3.5 5.981 3.854 5.628 4.29 5.626H19.71C20.146 5.626 20.5 5.981 20.5 6.416V19.71V19.708Z" fill="#8899A6"/><path d="M7.03207 10.0348C7.74176 10.0348 8.31707 9.45953 8.31707 8.74984C8.31707 8.04016 7.74176 7.46484 7.03207 7.46484C6.32238 7.46484 5.74707 8.04016 5.74707 8.74984C5.74707 9.45953 6.32238 10.0348 7.03207 10.0348Z" fill="#8899A6"/><path d="M7.03207 14.4411C7.74176 14.4411 8.31707 13.8658 8.31707 13.1561C8.31707 12.4464 7.74176 11.8711 7.03207 11.8711C6.32238 11.8711 5.74707 12.4464 5.74707 13.1561C5.74707 13.8658 6.32238 14.4411 7.03207 14.4411Z" fill="#8899A6"/><path d="M16.9676 10.0348C17.6773 10.0348 18.2526 9.45953 18.2526 8.74984C18.2526 8.04016 17.6773 7.46484 16.9676 7.46484C16.2579 7.46484 15.6826 8.04016 15.6826 8.74984C15.6826 9.45953 16.2579 10.0348 16.9676 10.0348Z" fill="#8899A6"/><path d="M16.9676 14.4411C17.6773 14.4411 18.2526 13.8658 18.2526 13.1561C18.2526 12.4464 17.6773 11.8711 16.9676 11.8711C16.2579 11.8711 15.6826 12.4464 15.6826 13.1561C15.6826 13.8658 16.2579 14.4411 16.9676 14.4411Z" fill="#8899A6"/><path d="M11.9998 10.0348C12.7095 10.0348 13.2848 9.45953 13.2848 8.74984C13.2848 8.04016 12.7095 7.46484 11.9998 7.46484C11.2902 7.46484 10.7148 8.04016 10.7148 8.74984C10.7148 9.45953 11.2902 10.0348 11.9998 10.0348Z" fill="#8899A6"/><path d="M11.9998 14.4411C12.7095 14.4411 13.2848 13.8658 13.2848 13.1561C13.2848 12.4464 12.7095 11.8711 11.9998 11.8711C11.2902 11.8711 10.7148 12.4464 10.7148 13.1561C10.7148 13.8658 11.2902 14.4411 11.9998 14.4411Z" fill="#8899A6"/><path d="M7.03207 18.7712C7.74176 18.7712 8.31707 18.1959 8.31707 17.4862C8.31707 16.7765 7.74176 16.2012 7.03207 16.2012C6.32238 16.2012 5.74707 16.7765 5.74707 17.4862C5.74707 18.1959 6.32238 18.7712 7.03207 18.7712Z" fill="#8899A6"/><path d="M11.9998 18.7712C12.7095 18.7712 13.2848 18.1959 13.2848 17.4862C13.2848 16.7765 12.7095 16.2012 11.9998 16.2012C11.2902 16.2012 10.7148 16.7765 10.7148 17.4862C10.7148 18.1959 11.2902 18.7712 11.9998 18.7712Z" fill="#8899A6"/></svg>