<svg width="24" height="24" viewBox="0 0 24 24" fill="none" xmlns="http://www.w3.org/2000/svg">
<path d="M20.5848 9.46786C21.2448 9.46786 21.7848 8.92986 21.7848 8.26786C21.7848 7.60586 21.2448 7.06786 20.5848 7.06786H17.3648L17.6748 3.52086C17.7018 3.20286 17.6048 2.89086 17.3978 2.64586C17.1918 2.40086 16.9028 2.24986 16.5758 2.22086C15.9258 2.18586 15.3408 2.65286 15.2828 3.31386L14.9568 7.06786H9.89982L10.2078 3.52286C10.2678 2.86486 9.77782 2.28086 9.11082 2.22086C8.44582 2.17086 7.87582 2.65086 7.81782 3.31286L7.49282 7.06686H4.16282C3.49982 7.06686 2.96282 7.60486 2.96282 8.26686C2.96282 8.92886 3.50082 9.46686 4.16282 9.46686H7.28482L6.84482 14.5309H3.41582C2.75382 14.5309 2.21582 15.0709 2.21582 15.7309C2.21582 16.3909 2.75382 16.9329 3.41582 16.9329H6.63582L6.32582 20.4809C6.26882 21.1379 6.75782 21.7209 7.41582 21.7809L7.52182 21.7859C8.14782 21.7859 8.66182 21.3139 8.71682 20.6879L9.04382 16.9349H14.0998L13.7918 20.4789C13.7318 21.1369 14.2218 21.7209 14.8818 21.7809L14.9878 21.7859C15.6048 21.7859 16.1298 21.3039 16.1828 20.6879L16.5078 16.9349H19.8378C20.4978 16.9349 21.0378 16.3949 21.0378 15.7349C21.0378 15.0749 20.4978 14.5329 19.8378 14.5329H16.7158L17.1558 9.46886H20.5858L20.5848 9.46786ZM14.7468 9.46786L14.3068 14.5309H9.25282L9.69282 9.46886H14.7478L14.7468 9.46786Z" fill="white"/>
</svg>
