<svg width="24" height="24" viewBox="0 0 24 24" fill="none" xmlns="http://www.w3.org/2000/svg">
<path d="M22.4597 7.5699L12.3567 2.1149C12.1337 1.9949 11.8667 1.9949 11.6437 2.1149L1.54275 7.5699C1.17875 7.7669 1.04275 8.2219 1.23975 8.5869C1.37475 8.8369 1.63375 8.9799 1.89975 8.9799C2.01975 8.9799 2.14275 8.9499 2.25575 8.8899L3.07075 8.4499L4.69975 19.9629C4.91375 21.1779 6.00775 22.0249 7.35775 22.0249H16.6397C17.9917 22.0249 19.0847 21.1769 19.3027 19.9379L20.9288 8.4479L21.7467 8.8899C22.1107 9.0829 22.5668 8.9499 22.7638 8.5859C22.9598 8.2229 22.8237 7.7679 22.4597 7.5699V7.5699ZM17.8218 19.7029C17.7148 20.3089 17.1187 20.5249 16.6417 20.5249H7.35975C6.87975 20.5249 6.28475 20.3089 6.18175 19.7269L4.47975 7.6899L11.9997 3.6279L19.5217 7.6879L17.8218 19.7029V19.7029Z" fill="white"/>
<path d="M8.21973 12.1838C8.21973 14.2678 9.91473 15.9638 11.9997 15.9638C14.0847 15.9638 15.7797 14.2678 15.7797 12.1838C15.7797 10.0998 14.0847 8.40381 11.9997 8.40381C9.91473 8.40381 8.21973 10.0998 8.21973 12.1838ZM14.2797 12.1838C14.2797 13.4418 13.2577 14.4638 11.9997 14.4638C10.7417 14.4638 9.71973 13.4418 9.71973 12.1838C9.71973 10.9258 10.7417 9.90381 11.9997 9.90381C13.2577 9.90381 14.2797 10.9258 14.2797 12.1838Z" fill="white"/>
</svg>
