<svg width="24" height="24" viewBox="0 0 24 24" fill="none" xmlns="http://www.w3.org/2000/svg">
<path d="M11.9999 14.3152C9.91189 14.3152 8.21289 12.6172 8.21289 10.5292C8.21289 8.44123 9.91289 6.74023 11.9999 6.74023C14.0869 6.74023 15.7869 8.44024 15.7869 10.5272C15.7869 12.6142 14.0869 14.3122 11.9999 14.3122V14.3152ZM11.9999 8.24223C10.7399 8.24223 9.71289 9.26823 9.71289 10.5292C9.71289 11.7902 10.7399 12.8142 11.9999 12.8142C13.2599 12.8142 14.2869 11.7892 14.2869 10.5282C14.2869 9.26723 13.2599 8.24023 11.9999 8.24023V8.24223Z" fill="#8899A6"/>
<path d="M20.6916 10.69C20.6916 5.9 16.7916 2 11.9996 2C7.20762 2 3.30762 5.9 3.30762 10.69C3.30762 12.592 3.91062 14.398 5.05062 15.913L5.05362 15.911L5.06062 15.926C6.68862 17.996 11.3386 21.683 11.5356 21.838C11.6736 21.948 11.8376 22.001 12.0006 22.001C12.1636 22.001 12.3276 21.948 12.4656 21.839C12.6626 21.684 17.3126 17.999 18.9406 15.927L18.9476 15.913L18.9496 15.915C20.0896 14.399 20.6916 12.595 20.6916 10.692V10.69ZM11.9996 20.29C10.7756 19.3 7.47962 16.575 6.24362 15.005C5.30362 13.755 4.80762 12.263 4.80762 10.693C4.80762 6.727 8.03462 3.5 11.9996 3.5C15.9646 3.5 19.1916 6.726 19.1916 10.69C19.1916 12.26 18.6946 13.752 17.7556 15.003C16.5196 16.573 13.2236 19.297 11.9996 20.288V20.29Z" fill="#8899A6"/>
</svg>
