<svg width="24" height="24" viewBox="0 0 24 24" fill="none" xmlns="http://www.w3.org/2000/svg"><path d="M23.6425 4.93695C22.8075 5.30695 21.9105 5.55695 20.9675 5.66995C21.9295 5.09395 22.6675 4.17995 23.0155 3.09195C22.1155 3.62595 21.1185 4.01395 20.0575 4.22195C19.2075 3.31795 17.9975 2.75195 16.6575 2.75195C14.0855 2.75195 11.9995 4.83795 11.9995 7.41195C11.9995 7.77595 12.0415 8.12995 12.1195 8.47195C8.24652 8.27695 4.81552 6.42195 2.51752 3.60395C2.11752 4.29395 1.88752 5.09395 1.88752 5.94595C1.88752 7.56195 2.71052 8.98895 3.95952 9.82395C3.19552 9.79895 2.47752 9.58995 1.84952 9.24095V9.30095C1.84952 11.558 3.45452 13.441 5.58652 13.869C5.19452 13.975 4.78352 14.031 4.35952 14.031C4.05952 14.031 3.76652 14.003 3.48252 13.949C4.07552 15.799 5.79552 17.147 7.83452 17.183C6.23952 18.433 4.23052 19.178 2.04852 19.178C1.67252 19.178 1.30152 19.156 0.936523 19.113C2.99852 20.436 5.44652 21.206 8.07652 21.206C16.6465 21.206 21.3315 14.108 21.3315 7.95195C21.3315 7.75195 21.3265 7.54995 21.3175 7.34995C22.2275 6.69195 23.0175 5.87295 23.6405 4.93995L23.6425 4.93695Z" fill="white"/></svg>