<svg width="24" height="24" viewBox="0 0 24 24" fill="none" xmlns="http://www.w3.org/2000/svg">
<path d="M21.6968 16.4681C21.6768 16.4521 19.5568 14.8281 19.5938 10.4381C19.6138 7.90513 18.7818 5.65613 17.2468 4.10413C15.8718 2.71113 14.0098 1.94013 12.0048 1.93213H11.9918C9.98779 1.94013 8.12579 2.71213 6.74979 4.10413C5.21579 5.65713 4.38279 7.90613 4.40379 10.4371C4.44079 14.7691 2.38379 16.4041 2.30179 16.4671C2.04179 16.6611 1.93579 16.9971 2.03679 17.3051C2.13779 17.6131 2.42679 17.8201 2.74979 17.8201H7.24379C7.34379 20.3641 9.43179 22.4071 11.9998 22.4071C14.5678 22.4071 16.6548 20.3641 16.7558 17.8201H21.2498C21.5738 17.8201 21.8598 17.6121 21.9618 17.3051C22.0638 16.9981 21.9568 16.6611 21.6968 16.4681ZM11.9998 20.4081C10.5338 20.4081 9.34279 19.2611 9.24379 17.8201H14.7558C14.6558 19.2601 13.4658 20.4071 11.9998 20.4071V20.4081Z" fill="white"/>
</svg>
