<svg width="24" height="24" viewBox="0 0 24 24" fill="none" xmlns="http://www.w3.org/2000/svg"><path d="M21.6968 16.4682C21.6768 16.4522 19.5568 14.8282 19.5938 10.4382C19.6138 7.90618 18.7818 5.65618 17.2468 4.10318C15.8718 2.71018 14.0098 1.94018 12.0048 1.93018H11.9918C9.98779 1.94018 8.12579 2.71018 6.74979 4.10418C5.21579 5.65718 4.38179 7.90618 4.40379 10.4382C4.44079 14.7682 2.38379 16.4052 2.30179 16.4682C2.04179 16.6612 1.93579 16.9982 2.03679 17.3062C2.13879 17.6142 2.42679 17.8212 2.74879 17.8212H7.66879C7.77079 20.1312 9.66579 21.9812 11.9988 21.9812C14.3318 21.9812 16.2248 20.1312 16.3258 17.8212H21.2478C21.5698 17.8212 21.8578 17.6152 21.9578 17.3072C22.0608 17.0002 21.9548 16.6622 21.6948 16.4692L21.6968 16.4682ZM11.9998 20.4782C10.4948 20.4782 9.26979 19.3012 9.17179 17.8202H14.8278C14.7278 19.3002 13.5048 20.4802 11.9998 20.4802V20.4782ZM4.37979 16.3202C5.11979 15.1882 5.92779 13.2922 5.90379 10.4242C5.88579 8.26418 6.54779 6.44218 7.81679 5.15718C8.90979 4.05018 10.3968 3.43718 11.9998 3.43018C13.6028 3.43818 15.0868 4.05018 16.1798 5.15818C17.4498 6.44318 18.1128 8.26418 18.0948 10.4252C18.0708 13.2932 18.8798 15.1902 19.6198 16.3212H4.37979V16.3202Z" fill="white"/></svg>