<svg width="24" height="24" viewBox="0 0 24 24" fill="none" xmlns="http://www.w3.org/2000/svg"><path d="M12.2245 12.1649C10.8685 12.1649 9.35252 12.0149 8.38452 10.9089C7.57052 9.97891 7.30752 8.54091 7.57952 6.51691C7.95952 3.69091 9.69552 2.00391 12.2255 2.00391C14.7555 2.00391 16.4925 3.69091 16.8715 6.51691C17.1435 8.54091 16.8795 9.97691 16.0655 10.9089C15.0955 12.0149 13.5805 12.1639 12.2255 12.1639L12.2245 12.1649ZM18.0735 22.0149H6.37552C5.71252 22.0149 5.12552 21.7349 4.72552 21.2289C4.30352 20.6949 4.14952 19.9589 4.31552 19.2609C5.14952 15.7309 8.40152 13.2639 12.2235 13.2639C16.0455 13.2639 19.2975 15.7299 20.1335 19.2609C20.2975 19.9589 20.1435 20.6949 19.7215 21.2279C19.3215 21.7329 18.7365 22.0129 18.0735 22.0129V22.0149Z" fill="white"/></svg>