<svg width="24" height="24" viewBox="0 0 24 24" fill="none" xmlns="http://www.w3.org/2000/svg"><path d="M23.7702 15.6699C23.4782 15.3769 23.0032 15.3769 22.7102 15.6699L20.4902 17.8899V7.64991C20.4902 5.58191 18.8072 3.89991 16.7402 3.89991H10.8902C10.4762 3.89991 10.1402 4.23591 10.1402 4.64991C10.1402 5.06391 10.4762 5.39991 10.8902 5.39991H16.7402C17.9802 5.39991 18.9902 6.40991 18.9902 7.64991V17.8899L16.7702 15.6699C16.4772 15.3769 16.0022 15.3769 15.7102 15.6699C15.4182 15.9629 15.4162 16.4379 15.7102 16.7299L19.2102 20.2299C19.3552 20.3769 19.5472 20.4499 19.7402 20.4499C19.9332 20.4499 20.1232 20.3779 20.2702 20.2299L23.7702 16.7299C24.0642 16.4379 24.0642 15.9629 23.7702 15.6699ZM13.1102 18.9499H7.26022C6.02022 18.9499 5.01022 17.9399 5.01022 16.6999V6.45991L7.23022 8.67991C7.37822 8.82691 7.57022 8.89991 7.76222 8.89991C7.95422 8.89991 8.14622 8.82691 8.29222 8.67991C8.58522 8.38691 8.58522 7.91191 8.29222 7.61991L4.79222 4.11991C4.49922 3.82591 4.02422 3.82591 3.73222 4.11991L0.232219 7.61991C-0.0617813 7.91191 -0.0617813 8.38691 0.232219 8.67991C0.526219 8.97291 0.999219 8.97291 1.29222 8.67991L3.51222 6.45991V16.6999C3.51222 18.7679 5.19522 20.4499 7.26222 20.4499H13.1122C13.5262 20.4499 13.8622 20.1139 13.8622 19.6999C13.8622 19.2859 13.5252 18.9499 13.1122 18.9499H13.1102Z" fill="white"/></svg>