<svg width="24" height="24" viewBox="0 0 24 24" fill="none" xmlns="http://www.w3.org/2000/svg">
<g clip-path="url(#clip0_52_1541)">
<path d="M-37.9 18.0001C-38 17.9001 -38 17.9001 -38 17.8001C-37.9 17.8001 -37.9 17.9001 -37.9 18.0001ZM18 2.2001H16.7V1.9001C16.7 1.5001 16.4 1.1001 15.9 1.1001C15.5 1.1001 15.1 1.4001 15.1 1.9001V2.2001H7.7V1.9001C7.7 1.5001 7.4 1.1001 6.9 1.1001C6.5 1.1001 6.1 1.4001 6.1 1.9001V2.2001H4.8C3.4 2.2001 2.3 3.3001 2.3 4.7001V17.8001C2.3 19.2001 3.4 20.3001 4.8 20.3001H7.7C8.1 20.3001 8.5 20.0001 8.5 19.5001C8.5 19.1001 8.2 18.7001 7.7 18.7001H4.8C4.2 18.7001 3.8 18.2001 3.8 17.7001V7.9001C3.8 7.6001 4.2 7.2001 4.8 7.2001H18C18.6 7.2001 19 7.6001 19 7.9001V9.7001C19 10.1001 19.3 10.5001 19.8 10.5001C20.2 10.5001 20.6 10.2001 20.6 9.7001V4.7001C20.5 3.3001 19.4 2.2001 18 2.2001ZM19 5.9001C18.7 5.8001 18.3 5.7001 18 5.7001H4.8C4.4 5.7001 4.1 5.8001 3.8 5.9001V4.7001C3.8 4.1001 4.3 3.7001 4.8 3.7001H6.1V4.2001C6.1 4.6001 6.4 5.0001 6.9 5.0001C7.3 5.0001 7.7 4.7001 7.7 4.2001V3.7001H15.2V4.2001C15.2 4.6001 15.5 5.0001 16 5.0001C16.4 5.0001 16.8 4.7001 16.8 4.2001V3.7001H18C18.6 3.7001 19 4.2001 19 4.7001V5.9001Z" fill="#1DA1F2"/>
<path d="M15.4998 10.3999C12.0998 10.3999 9.2998 13.1999 9.2998 16.5999C9.2998 19.9999 12.0998 22.7999 15.4998 22.7999C18.8998 22.7999 21.6998 19.9999 21.6998 16.5999C21.6998 13.1999 18.8998 10.3999 15.4998 10.3999ZM15.4998 21.3999C12.8998 21.3999 10.7998 19.2999 10.7998 16.6999C10.7998 14.0999 12.8998 11.9999 15.4998 11.9999C18.0998 11.9999 20.1998 14.0999 20.1998 16.6999C20.1998 19.1999 18.0998 21.3999 15.4998 21.3999Z" fill="#1DA1F2"/>
<path d="M18.8998 18.7002C18.7998 18.9002 18.4998 19.1002 18.2998 19.1002C18.1998 19.1002 17.9998 19.1002 17.8998 19.0002L14.7998 17.0002V14.0002C14.7998 13.6002 15.0998 13.2002 15.5998 13.2002C15.9998 13.2002 16.3998 13.5002 16.3998 14.0002V16.2002L18.7998 17.7002C18.9998 17.9002 19.0998 18.3002 18.8998 18.7002Z" fill="#1DA1F2"/>
</g>
<defs>
<clipPath id="clip0_52_1541">
<rect width="24" height="24" fill="white"/>
</clipPath>
</defs>
</svg>
