<svg width="24" height="24" viewBox="0 0 24 24" fill="none" xmlns="http://www.w3.org/2000/svg"><path d="M17.5295 7.47024L12.5295 2.47024C12.2365 2.17724 11.7615 2.17724 11.4695 2.47024L6.46952 7.47024C6.17552 7.76324 6.17552 8.23824 6.46952 8.53024C6.76352 8.82224 7.23652 8.82424 7.52952 8.53024L11.2495 4.81024V15.0002C11.2495 15.4142 11.5855 15.7502 11.9995 15.7502C12.4135 15.7502 12.7495 15.4142 12.7495 15.0002V4.81024L16.4695 8.53024C16.6155 8.67724 16.8075 8.75024 16.9995 8.75024C17.1915 8.75024 17.3835 8.67824 17.5295 8.53024C17.8225 8.23724 17.8225 7.76324 17.5295 7.47024Z" fill="white"/><path d="M19.708 21.944H4.292C3.028 21.944 2 20.916 2 19.652V14C2 13.586 2.336 13.25 2.75 13.25C3.164 13.25 3.5 13.586 3.5 14V19.652C3.5 20.089 3.855 20.444 4.292 20.444H19.708C20.145 20.444 20.5 20.089 20.5 19.652V14C20.5 13.586 20.836 13.25 21.25 13.25C21.664 13.25 22 13.586 22 14V19.652C22 20.916 20.972 21.944 19.708 21.944Z" fill="white"/></svg>